<svg viewBox="96 96 308 308" version="1.1" xmlns="http://www.w3.org/2000/svg" xmlns:xlink="http://www.w3.org/1999/xlink" xmlns:penpot="https://penpot.app/xmlns" style="width:100%;height:100%;background:#E8E9EA" fill="none"><penpot:page id="94d0bf99-a273-8157-8003-204352dbb7a1"></penpot:page><g id="shape-f748a6c0-1719-80f2-8003-2043578914f0"><penpot:shape penpot:name="Ellipse" penpot:type="circle" penpot:transform="matrix(1.000000, 0.000000, 0.000000, 1.000000, 0.000000, 0.000000)" penpot:transform-inverse="matrix(1.000000, 0.000000, 0.000000, 1.000000, 0.000000, 0.000000)" penpot:proportion="1" penpot:proportion-lock="false" penpot:rotation="0" penpot:center-x="250" penpot:center-y="250"><penpot:fills><penpot:fill penpot:fill-color="#f3f2ff" penpot:fill-opacity="1"></penpot:fill></penpot:fills><penpot:strokes><penpot:stroke penpot:stroke-alignment="center" penpot:stroke-color="#4c3b9d" penpot:stroke-opacity="1" penpot:stroke-width="8" penpot:stroke-style="solid"></penpot:stroke></penpot:strokes></penpot:shape><defs></defs><g class="fills" id="fills-f748a6c0-1719-80f2-8003-2043578914f0"><ellipse rx="150" ry="150" style="fill:#f3f2ff;fill-opacity:1" cx="250" cy="250" transform="matrix(1.000000, 0.000000, 0.000000, 1.000000, 0.000000, 0.000000)"></ellipse></g><g id="strokes-f748a6c0-1719-80f2-8003-2043578914f0" class="strokes"><g class="stroke-shape"><defs></defs><ellipse rx="150" ry="150" style="fill:none;fill-opacity:none;stroke-width:8;stroke:#4c3b9d;stroke-opacity:1;stroke-dasharray:" cx="250" cy="250" transform="matrix(1.000000, 0.000000, 0.000000, 1.000000, 0.000000, 0.000000)"></ellipse></g></g></g><g id="shape-f748a6c0-1719-80f2-8003-2044a234f95d"><penpot:shape penpot:name="Path" penpot:type="path" penpot:proportion="1" penpot:proportion-lock="false" penpot:center-x="250" penpot:center-y="253"><penpot:fills><penpot:fill penpot:fill-color="#ffffff" penpot:fill-opacity="1"></penpot:fill></penpot:fills><penpot:strokes><penpot:stroke penpot:stroke-alignment="center" penpot:stroke-color="#f3f2ff" penpot:stroke-opacity="1" penpot:stroke-width="2" penpot:stroke-style="solid"></penpot:stroke></penpot:strokes></penpot:shape><defs></defs><g class="fills" id="fills-f748a6c0-1719-80f2-8003-2044a234f95d"><path rx="0" ry="0" style="fill:#ffffff;fill-opacity:1" d="M249.600,186.600L247.200,190.600L244.800,193.000L243.200,195.400L242.400,195.400L240.800,197.000L239.200,197.000L238.400,198.600L234.400,199.400L234.400,201.000L232.800,201.800L232.000,204.200L231.200,205.000L230.400,205.000L230.400,207.400L229.600,208.200L228.000,213.000L226.400,214.600L224.800,218.600L223.200,221.000L222.400,221.000L222.400,222.600L221.600,222.600L220.800,223.400L220.800,225.800L220.000,225.800L219.200,226.600L219.200,228.200L218.400,229.000L217.600,229.000L217.600,230.600L216.800,230.600L216.800,232.200L215.200,236.200L215.200,238.600L214.400,239.400L214.400,240.200L212.800,241.800L212.800,243.400L212.000,244.200L211.200,244.200L211.200,247.400L210.400,247.400L210.400,248.200L209.600,249.000L209.600,250.600L208.800,251.400L208.800,253.800L207.200,255.400L207.200,258.600L206.400,261.000L204.800,262.600L204.800,268.200L204.000,269.000L204.000,281.800L204.800,282.600L204.800,284.200L205.600,285.000L205.600,286.600L206.400,287.400L206.400,289.800L207.200,291.400L207.200,293.000L208.000,293.800L208.000,296.200L208.800,298.600L209.600,299.400L209.600,301.000L210.400,301.800L210.400,303.400L211.200,303.400L211.200,304.200L212.000,304.200L212.000,305.000L213.600,305.000L213.600,305.800L214.400,305.800L216.000,307.400L216.800,307.400L216.800,308.200L217.600,309.000L218.400,309.000L218.400,309.800L219.200,309.800L220.000,310.600L220.000,311.400L221.600,311.400L221.600,312.200L223.200,313.800L226.400,313.800L227.200,314.600L228.000,314.600L228.000,315.400L230.400,315.400L232.000,317.000L232.800,317.000L233.600,317.800L237.600,317.800L237.600,318.600L240.000,318.600L240.800,319.400L241.600,319.400L241.600,320.200L244.000,320.200L244.800,321.000L254.400,321.000L254.400,320.200L257.600,320.200L257.600,319.400L259.200,319.400L259.200,318.600L262.400,318.600L263.200,317.800L264.000,317.800L265.600,316.200L268.000,316.200L268.800,315.400L269.600,315.400L269.600,314.600L272.000,314.600L274.400,312.200L276.000,312.200L277.600,310.600L279.200,310.600L280.000,309.800L280.800,309.800L280.800,308.200L281.600,308.200L283.200,306.600L284.000,306.600L284.000,305.800L284.800,305.000L284.800,303.400L285.600,302.600L286.400,302.600L287.200,300.200L288.800,298.600L288.800,297.000L289.600,297.000L289.600,294.600L290.400,294.600L291.200,293.800L291.200,292.200L294.400,288.200L294.400,278.600L295.200,270.600L296.000,269.800L296.000,268.200L295.200,268.200L294.400,267.400L294.400,265.800L291.200,260.200L290.400,260.200L290.400,258.600L288.800,258.600L288.800,252.200L288.000,252.200L288.000,249.800L286.400,245.800L286.400,242.600L285.600,242.600L285.600,241.800L284.800,241.800L284.000,239.400L284.000,237.000L283.200,235.400L282.400,235.400L282.400,231.400L281.600,231.400L281.600,228.200L279.200,220.200L278.400,220.200L278.400,219.400L276.800,219.400L275.200,217.800L273.600,217.800L273.600,217.000L272.000,215.400L270.400,211.400L269.600,211.400L267.200,207.400L266.400,206.600L265.600,206.600L265.600,205.800L264.000,203.400L262.400,201.800L260.000,196.200L259.200,196.200L259.200,195.400L255.200,190.600L255.200,189.800L254.400,189.000L253.600,189.000L252.800,186.600L252.000,186.600L252.000,185.800L251.200,185.800L251.200,185.000L245.600,185.000L245.600,186.600L244.800,186.600L244.800,187.400L243.200,188.200L243.200,189.800L242.400,189.800L241.600,190.600L241.600,192.200L240.800,192.200L240.800,193.000L239.200,194.600L239.200,197.000"></path></g><g id="strokes-f748a6c0-1719-80f2-8003-2044a234f95d" class="strokes"><g class="stroke-shape"><defs></defs><path rx="0" ry="0" style="fill:none;fill-opacity:none;stroke-width:2;stroke:#f3f2ff;stroke-opacity:1;stroke-dasharray:" d="M249.600,186.600L247.200,190.600L244.800,193.000L243.200,195.400L242.400,195.400L240.800,197.000L239.200,197.000L238.400,198.600L234.400,199.400L234.400,201.000L232.800,201.800L232.000,204.200L231.200,205.000L230.400,205.000L230.400,207.400L229.600,208.200L228.000,213.000L226.400,214.600L224.800,218.600L223.200,221.000L222.400,221.000L222.400,222.600L221.600,222.600L220.800,223.400L220.800,225.800L220.000,225.800L219.200,226.600L219.200,228.200L218.400,229.000L217.600,229.000L217.600,230.600L216.800,230.600L216.800,232.200L215.200,236.200L215.200,238.600L214.400,239.400L214.400,240.200L212.800,241.800L212.800,243.400L212.000,244.200L211.200,244.200L211.200,247.400L210.400,247.400L210.400,248.200L209.600,249.000L209.600,250.600L208.800,251.400L208.800,253.800L207.200,255.400L207.200,258.600L206.400,261.000L204.800,262.600L204.800,268.200L204.000,269.000L204.000,281.800L204.800,282.600L204.800,284.200L205.600,285.000L205.600,286.600L206.400,287.400L206.400,289.800L207.200,291.400L207.200,293.000L208.000,293.800L208.000,296.200L208.800,298.600L209.600,299.400L209.600,301.000L210.400,301.800L210.400,303.400L211.200,303.400L211.200,304.200L212.000,304.200L212.000,305.000L213.600,305.000L213.600,305.800L214.400,305.800L216.000,307.400L216.800,307.400L216.800,308.200L217.600,309.000L218.400,309.000L218.400,309.800L219.200,309.800L220.000,310.600L220.000,311.400L221.600,311.400L221.600,312.200L223.200,313.800L226.400,313.800L227.200,314.600L228.000,314.600L228.000,315.400L230.400,315.400L232.000,317.000L232.800,317.000L233.600,317.800L237.600,317.800L237.600,318.600L240.000,318.600L240.800,319.400L241.600,319.400L241.600,320.200L244.000,320.200L244.800,321.000L254.400,321.000L254.400,320.200L257.600,320.200L257.600,319.400L259.200,319.400L259.200,318.600L262.400,318.600L263.200,317.800L264.000,317.800L265.600,316.200L268.000,316.200L268.800,315.400L269.600,315.400L269.600,314.600L272.000,314.600L274.400,312.200L276.000,312.200L277.600,310.600L279.200,310.600L280.000,309.800L280.800,309.800L280.800,308.200L281.600,308.200L283.200,306.600L284.000,306.600L284.000,305.800L284.800,305.000L284.800,303.400L285.600,302.600L286.400,302.600L287.200,300.200L288.800,298.600L288.800,297.000L289.600,297.000L289.600,294.600L290.400,294.600L291.200,293.800L291.200,292.200L294.400,288.200L294.400,278.600L295.200,270.600L296.000,269.800L296.000,268.200L295.200,268.200L294.400,267.400L294.400,265.800L291.200,260.200L290.400,260.200L290.400,258.600L288.800,258.600L288.800,252.200L288.000,252.200L288.000,249.800L286.400,245.800L286.400,242.600L285.600,242.600L285.600,241.800L284.800,241.800L284.000,239.400L284.000,237.000L283.200,235.400L282.400,235.400L282.400,231.400L281.600,231.400L281.600,228.200L279.200,220.200L278.400,220.200L278.400,219.400L276.800,219.400L275.200,217.800L273.600,217.800L273.600,217.000L272.000,215.400L270.400,211.400L269.600,211.400L267.200,207.400L266.400,206.600L265.600,206.600L265.600,205.800L264.000,203.400L262.400,201.800L260.000,196.200L259.200,196.200L259.200,195.400L255.200,190.600L255.200,189.800L254.400,189.000L253.600,189.000L252.800,186.600L252.000,186.600L252.000,185.800L251.200,185.800L251.200,185.000L245.600,185.000L245.600,186.600L244.800,186.600L244.800,187.400L243.200,188.200L243.200,189.800L242.400,189.800L241.600,190.600L241.600,192.200L240.800,192.200L240.800,193.000L239.200,194.600L239.200,197.000"></path></g></g></g><g id="shape-f748a6c0-1719-80f2-8003-2043cef5cbd7" style="fill:#000000" version="1.1" width="800px" height="800px" rx="0" ry="0" filter="url(#filter_rumext-id-3)"><penpot:shape penpot:name="drop-svgrepo-com" penpot:type="group" penpot:transform="matrix(1.000000, 0.000000, 0.000000, 1.000000, 0.000000, 0.000000)" penpot:transform-inverse="matrix(1.000000, 0.000000, 0.000000, 1.000000, 0.000000, 0.000000)" penpot:proportion="1" penpot:proportion-lock="false" penpot:rotation="0" penpot:center-x="250" penpot:center-y="250"><penpot:shadow penpot:shadow-type="drop-shadow" penpot:hidden="false" penpot:color="#000000" penpot:opacity="0" penpot:offset-x="4" penpot:offset-y="4" penpot:blur="4" penpot:spread="0"></penpot:shadow><penpot:svg-import penpot:svg-attrs="version,width,height"></penpot:svg-import></penpot:shape><defs><filter id="filter_rumext-id-3" x="-0.18" y="-0.18" width="1.44" height="1.44" filterUnits="objectBoundingBox" color-interpolation-filters="sRGB"><feFlood flood-opacity="0" result="BackgroundImageFix"></feFlood><feColorMatrix in="SourceAlpha" type="matrix" values="0 0 0 0 0 0 0 0 0 0 0 0 0 0 0 0 0 0 127 0"></feColorMatrix><feOffset dx="4" dy="4"></feOffset><feGaussianBlur stdDeviation="2"></feGaussianBlur><feColorMatrix type="matrix" values="0 0 0 0 0 0 0 0 0 0 0 0 0 0 0 0 0 0 0 0"></feColorMatrix><feBlend mode="normal" in2="BackgroundImageFix" result="filter_f748a6c0-1719-80f2-8003-204461eb2a44"></feBlend><feBlend mode="normal" in="SourceGraphic" in2="filter_f748a6c0-1719-80f2-8003-204461eb2a44" result="shape"></feBlend></filter><filter id="filter_shadow_rumext-id-3" x="-0.18" y="-0.18" width="1.44" height="1.44" filterUnits="objectBoundingBox" color-interpolation-filters="sRGB"><feFlood flood-opacity="0" result="BackgroundImageFix"></feFlood><feColorMatrix in="SourceAlpha" type="matrix" values="0 0 0 0 0 0 0 0 0 0 0 0 0 0 0 0 0 0 127 0"></feColorMatrix><feOffset dx="4" dy="4"></feOffset><feGaussianBlur stdDeviation="2"></feGaussianBlur><feColorMatrix type="matrix" values="0 0 0 0 0 0 0 0 0 0 0 0 0 0 0 0 0 0 0 0"></feColorMatrix><feBlend mode="normal" in2="BackgroundImageFix" result="filter_f748a6c0-1719-80f2-8003-204461eb2a44"></feBlend><feBlend mode="normal" in="SourceGraphic" in2="filter_f748a6c0-1719-80f2-8003-204461eb2a44" result="shape"></feBlend></filter></defs><g id="shape-f748a6c0-1719-80f2-8003-2043cef67f60"><penpot:shape penpot:name="svg-path" penpot:type="path" penpot:transform="matrix(1.000000, 0.000000, 0.000000, 1.000000, 0.000000, 0.000000)" penpot:transform-inverse="matrix(1.000000, 0.000000, 0.000000, 1.000000, 0.000000, 0.000000)" penpot:proportion="1" penpot:proportion-lock="false" penpot:rotation="0" penpot:center-x="250" penpot:center-y="249.99520691847647"><penpot:svg-import penpot:svg-viewbox-x="4.994" penpot:svg-viewbox-y="0.038954951884427796" penpot:svg-viewbox-width="22.012" penpot:svg-attrs="style" penpot:svg-viewbox-height="31.920045048115572" penpot:svg-transform="matrix(1.000000, 0.000000, 0.000000, 1.000000, 0.000000, 0.000000)" penpot:svg-style=""></penpot:svg-import><penpot:fills><penpot:fill penpot:fill-color="#4c3b9d" penpot:fill-opacity="1"></penpot:fill></penpot:fills></penpot:shape><defs></defs><g class="fills" id="fills-f748a6c0-1719-80f2-8003-2043cef67f60"><path rx="0" ry="0" style="fill:#4c3b9d;fill-opacity:1" d="M249.766,324.808C221.448,324.808,198.409,302.083,198.409,274.155C198.409,241.534,244.061,179.697,246.002,177.077C246.883,175.895,248.261,175.192,249.733,175.183C251.369,175.169,252.597,175.858,253.492,177.025C255.456,179.594,301.591,240.339,301.591,274.155C301.591,302.088,278.341,324.808,249.766,324.808ZZM249.817,187.844C238.919,203.322,207.784,249.667,207.784,274.155C207.784,296.912,226.619,315.433,249.766,315.433C273.170,315.433,292.216,296.917,292.216,274.155C292.216,248.758,260.847,203.106,249.817,187.844ZZ"></path></g></g></g><g id="shape-f748a6c0-1719-80f2-8003-20440f784654"><penpot:shape penpot:name="Ellipse" penpot:type="circle" penpot:transform="matrix(1.000000, 0.000000, 0.000000, 1.000000, 0.000000, 0.000000)" penpot:transform-inverse="matrix(1.000000, 0.000000, 0.000000, 1.000000, 0.000000, 0.000000)" penpot:proportion="1" penpot:proportion-lock="false" penpot:rotation="0" penpot:center-x="327" penpot:center-y="125"><penpot:fills><penpot:fill penpot:fill-color="#ffffff" penpot:fill-opacity="1"></penpot:fill></penpot:fills><penpot:strokes><penpot:stroke penpot:stroke-alignment="center" penpot:stroke-color="#4c3b9d" penpot:stroke-opacity="1" penpot:stroke-width="8" penpot:stroke-style="solid"></penpot:stroke></penpot:strokes></penpot:shape><defs></defs><g class="fills" id="fills-f748a6c0-1719-80f2-8003-20440f784654"><ellipse rx="25" ry="25" style="fill:#ffffff;fill-opacity:1" cx="327" cy="125" transform="matrix(1.000000, 0.000000, 0.000000, 1.000000, 0.000000, 0.000000)"></ellipse></g><g id="strokes-f748a6c0-1719-80f2-8003-20440f784654" class="strokes"><g class="stroke-shape"><defs></defs><ellipse rx="25" ry="25" style="fill:none;fill-opacity:none;stroke-width:8;stroke:#4c3b9d;stroke-opacity:1;stroke-dasharray:" cx="327" cy="125" transform="matrix(1.000000, 0.000000, 0.000000, 1.000000, 0.000000, 0.000000)"></ellipse></g></g></g></svg>