<svg viewBox="286 112 344 344" version="1.1" xmlns="http://www.w3.org/2000/svg" xmlns:xlink="http://www.w3.org/1999/xlink" xmlns:penpot="https://penpot.app/xmlns" style="width:100%;height:100%;background:#E8E9EA" fill="none"><penpot:page id="94d0bf99-a273-8157-8003-204352dbb7a1"></penpot:page><g id="shape-f748a6c0-1719-80f2-8003-2043578914f0"><penpot:shape penpot:name="Ellipse" penpot:type="circle" penpot:transform="matrix(1.000000, 0.000000, 0.000000, 1.000000, 0.000000, 0.000000)" penpot:transform-inverse="matrix(1.000000, 0.000000, 0.000000, 1.000000, 0.000000, 0.000000)" penpot:proportion="1" penpot:proportion-lock="false" penpot:rotation="0" penpot:center-x="440" penpot:center-y="302"><penpot:fills><penpot:fill penpot:fill-color="#f3f2ff" penpot:fill-opacity="1"></penpot:fill></penpot:fills><penpot:strokes><penpot:stroke penpot:stroke-alignment="center" penpot:stroke-color="#4c3b9d" penpot:stroke-opacity="1" penpot:stroke-width="8" penpot:stroke-style="solid"></penpot:stroke></penpot:strokes></penpot:shape><defs></defs><g class="fills" id="fills-f748a6c0-1719-80f2-8003-2043578914f0"><ellipse rx="150" ry="150" style="fill:#f3f2ff;fill-opacity:1" cx="440" cy="302" transform="matrix(1.000000, 0.000000, 0.000000, 1.000000, 0.000000, 0.000000)"></ellipse></g><g id="strokes-f748a6c0-1719-80f2-8003-2043578914f0" class="strokes"><g class="stroke-shape"><defs></defs><ellipse rx="150" ry="150" style="fill:none;fill-opacity:none;stroke-width:8;stroke:#4c3b9d;stroke-opacity:1;stroke-dasharray:" cx="440" cy="302" transform="matrix(1.000000, 0.000000, 0.000000, 1.000000, 0.000000, 0.000000)"></ellipse></g></g></g><g id="shape-f748a6c0-1719-80f2-8003-2044a234f95d"><penpot:shape penpot:name="Path" penpot:type="path" penpot:proportion="1" penpot:proportion-lock="false" penpot:center-x="440" penpot:center-y="305"><penpot:fills><penpot:fill penpot:fill-color="#ccc5fe" penpot:fill-opacity="1"></penpot:fill></penpot:fills><penpot:strokes><penpot:stroke penpot:stroke-alignment="center" penpot:stroke-color="#ccc5fe" penpot:stroke-opacity="1" penpot:stroke-width="2" penpot:stroke-style="solid"></penpot:stroke></penpot:strokes></penpot:shape><defs></defs><g class="fills" id="fills-f748a6c0-1719-80f2-8003-2044a234f95d"><path rx="0" ry="0" style="fill:#ccc5fe;fill-opacity:1" d="M439.600,238.600L437.200,242.600L434.800,245.000L433.200,247.400L432.400,247.400L430.800,249.000L429.200,249.000L428.400,250.600L424.400,251.400L424.400,253.000L422.800,253.800L422.000,256.200L421.200,257.000L420.400,257.000L420.400,259.400L419.600,260.200L418.000,265.000L416.400,266.600L414.800,270.600L413.200,273.000L412.400,273.000L412.400,274.600L411.600,274.600L410.800,275.400L410.800,277.800L410.000,277.800L409.200,278.600L409.200,280.200L408.400,281.000L407.600,281.000L407.600,282.600L406.800,282.600L406.800,284.200L405.200,288.200L405.200,290.600L404.400,291.400L404.400,292.200L402.800,293.800L402.800,295.400L402.000,296.200L401.200,296.200L401.200,299.400L400.400,299.400L400.400,300.200L399.600,301.000L399.600,302.600L398.800,303.400L398.800,305.800L397.200,307.400L397.200,310.600L396.400,313.000L394.800,314.600L394.800,320.200L394.000,321.000L394.000,333.800L394.800,334.600L394.800,336.200L395.600,337.000L395.600,338.600L396.400,339.400L396.400,341.800L397.200,343.400L397.200,345.000L398.000,345.800L398.000,348.200L398.800,350.600L399.600,351.400L399.600,353.000L400.400,353.800L400.400,355.400L401.200,355.400L401.200,356.200L402.000,356.200L402.000,357.000L403.600,357.000L403.600,357.800L404.400,357.800L406.000,359.400L406.800,359.400L406.800,360.200L407.600,361.000L408.400,361.000L408.400,361.800L409.200,361.800L410.000,362.600L410.000,363.400L411.600,363.400L411.600,364.200L413.200,365.800L416.400,365.800L417.200,366.600L418.000,366.600L418.000,367.400L420.400,367.400L422.000,369.000L422.800,369.000L423.600,369.800L427.600,369.800L427.600,370.600L430.000,370.600L430.800,371.400L431.600,371.400L431.600,372.200L434.000,372.200L434.800,373.000L444.400,373.000L444.400,372.200L447.600,372.200L447.600,371.400L449.200,371.400L449.200,370.600L452.400,370.600L453.200,369.800L454.000,369.800L455.600,368.200L458.000,368.200L458.800,367.400L459.600,367.400L459.600,366.600L462.000,366.600L464.400,364.200L466.000,364.200L467.600,362.600L469.200,362.600L470.000,361.800L470.800,361.800L470.800,360.200L471.600,360.200L473.200,358.600L474.000,358.600L474.000,357.800L474.800,357.000L474.800,355.400L475.600,354.600L476.400,354.600L477.200,352.200L478.800,350.600L478.800,349.000L479.600,349.000L479.600,346.600L480.400,346.600L481.200,345.800L481.200,344.200L484.400,340.200L484.400,330.600L485.200,322.600L486.000,321.800L486.000,320.200L485.200,320.200L484.400,319.400L484.400,317.800L481.200,312.200L480.400,312.200L480.400,310.600L478.800,310.600L478.800,304.200L478.000,304.200L478.000,301.800L476.400,297.800L476.400,294.600L475.600,294.600L475.600,293.800L474.800,293.800L474.000,291.400L474.000,289.000L473.200,287.400L472.400,287.400L472.400,283.400L471.600,283.400L471.600,280.200L469.200,272.200L468.400,272.200L468.400,271.400L466.800,271.400L465.200,269.800L463.600,269.800L463.600,269.000L462.000,267.400L460.400,263.400L459.600,263.400L457.200,259.400L456.400,258.600L455.600,258.600L455.600,257.800L454.000,255.400L452.400,253.800L450.000,248.200L449.200,248.200L449.200,247.400L445.200,242.600L445.200,241.800L444.400,241.000L443.600,241.000L442.800,238.600L442.000,238.600L442.000,237.800L441.200,237.800L441.200,237.000L435.600,237.000L435.600,238.600L434.800,238.600L434.800,239.400L433.200,240.200L433.200,241.800L432.400,241.800L431.600,242.600L431.600,244.200L430.800,244.200L430.800,245.000L429.200,246.600L429.200,249.000"></path></g><g id="strokes-f748a6c0-1719-80f2-8003-2044a234f95d" class="strokes"><g class="stroke-shape"><defs></defs><path rx="0" ry="0" style="fill:none;fill-opacity:none;stroke-width:2;stroke:#ccc5fe;stroke-opacity:1;stroke-dasharray:" d="M439.600,238.600L437.200,242.600L434.800,245.000L433.200,247.400L432.400,247.400L430.800,249.000L429.200,249.000L428.400,250.600L424.400,251.400L424.400,253.000L422.800,253.800L422.000,256.200L421.200,257.000L420.400,257.000L420.400,259.400L419.600,260.200L418.000,265.000L416.400,266.600L414.800,270.600L413.200,273.000L412.400,273.000L412.400,274.600L411.600,274.600L410.800,275.400L410.800,277.800L410.000,277.800L409.200,278.600L409.200,280.200L408.400,281.000L407.600,281.000L407.600,282.600L406.800,282.600L406.800,284.200L405.200,288.200L405.200,290.600L404.400,291.400L404.400,292.200L402.800,293.800L402.800,295.400L402.000,296.200L401.200,296.200L401.200,299.400L400.400,299.400L400.400,300.200L399.600,301.000L399.600,302.600L398.800,303.400L398.800,305.800L397.200,307.400L397.200,310.600L396.400,313.000L394.800,314.600L394.800,320.200L394.000,321.000L394.000,333.800L394.800,334.600L394.800,336.200L395.600,337.000L395.600,338.600L396.400,339.400L396.400,341.800L397.200,343.400L397.200,345.000L398.000,345.800L398.000,348.200L398.800,350.600L399.600,351.400L399.600,353.000L400.400,353.800L400.400,355.400L401.200,355.400L401.200,356.200L402.000,356.200L402.000,357.000L403.600,357.000L403.600,357.800L404.400,357.800L406.000,359.400L406.800,359.400L406.800,360.200L407.600,361.000L408.400,361.000L408.400,361.800L409.200,361.800L410.000,362.600L410.000,363.400L411.600,363.400L411.600,364.200L413.200,365.800L416.400,365.800L417.200,366.600L418.000,366.600L418.000,367.400L420.400,367.400L422.000,369.000L422.800,369.000L423.600,369.800L427.600,369.800L427.600,370.600L430.000,370.600L430.800,371.400L431.600,371.400L431.600,372.200L434.000,372.200L434.800,373.000L444.400,373.000L444.400,372.200L447.600,372.200L447.600,371.400L449.200,371.400L449.200,370.600L452.400,370.600L453.200,369.800L454.000,369.800L455.600,368.200L458.000,368.200L458.800,367.400L459.600,367.400L459.600,366.600L462.000,366.600L464.400,364.200L466.000,364.200L467.600,362.600L469.200,362.600L470.000,361.800L470.800,361.800L470.800,360.200L471.600,360.200L473.200,358.600L474.000,358.600L474.000,357.800L474.800,357.000L474.800,355.400L475.600,354.600L476.400,354.600L477.200,352.200L478.800,350.600L478.800,349.000L479.600,349.000L479.600,346.600L480.400,346.600L481.200,345.800L481.200,344.200L484.400,340.200L484.400,330.600L485.200,322.600L486.000,321.800L486.000,320.200L485.200,320.200L484.400,319.400L484.400,317.800L481.200,312.200L480.400,312.200L480.400,310.600L478.800,310.600L478.800,304.200L478.000,304.200L478.000,301.800L476.400,297.800L476.400,294.600L475.600,294.600L475.600,293.800L474.800,293.800L474.000,291.400L474.000,289.000L473.200,287.400L472.400,287.400L472.400,283.400L471.600,283.400L471.600,280.200L469.200,272.200L468.400,272.200L468.400,271.400L466.800,271.400L465.200,269.800L463.600,269.800L463.600,269.000L462.000,267.400L460.400,263.400L459.600,263.400L457.200,259.400L456.400,258.600L455.600,258.600L455.600,257.800L454.000,255.400L452.400,253.800L450.000,248.200L449.200,248.200L449.200,247.400L445.200,242.600L445.200,241.800L444.400,241.000L443.600,241.000L442.800,238.600L442.000,238.600L442.000,237.800L441.200,237.800L441.200,237.000L435.600,237.000L435.600,238.600L434.800,238.600L434.800,239.400L433.200,240.200L433.200,241.800L432.400,241.800L431.600,242.600L431.600,244.200L430.800,244.200L430.800,245.000L429.200,246.600L429.200,249.000"></path></g></g></g><g id="shape-f748a6c0-1719-80f2-8003-2043cef5cbd7" style="fill:#000000" version="1.1" width="800px" height="800px" rx="0" ry="0"><penpot:shape penpot:name="drop-svgrepo-com" penpot:type="group" penpot:transform="matrix(1.000000, 0.000000, 0.000000, 1.000000, 0.000000, 0.000000)" penpot:transform-inverse="matrix(1.000000, 0.000000, 0.000000, 1.000000, 0.000000, 0.000000)" penpot:proportion="1" penpot:proportion-lock="false" penpot:rotation="0" penpot:center-x="440" penpot:center-y="302"><penpot:svg-import penpot:svg-attrs="version,width,height"></penpot:svg-import></penpot:shape><defs></defs><g id="shape-f748a6c0-1719-80f2-8003-2043cef67f60"><penpot:shape penpot:name="svg-path" penpot:type="path" penpot:transform="matrix(1.000000, 0.000000, 0.000000, 1.000000, 0.000000, 0.000000)" penpot:transform-inverse="matrix(1.000000, 0.000000, 0.000000, 1.000000, 0.000000, 0.000000)" penpot:proportion="1" penpot:proportion-lock="false" penpot:rotation="0" penpot:center-x="440" penpot:center-y="301.99520691847647"><penpot:svg-import penpot:svg-viewbox-x="4.994" penpot:svg-viewbox-y="0.038954951884427796" penpot:svg-viewbox-width="22.012" penpot:svg-attrs="style" penpot:svg-viewbox-height="31.920045048115572" penpot:svg-transform="matrix(1.000000, 0.000000, 0.000000, 1.000000, 0.000000, 0.000000)" penpot:svg-style=""></penpot:svg-import><penpot:fills><penpot:fill penpot:fill-color="#4c3b9d" penpot:fill-opacity="1"></penpot:fill></penpot:fills></penpot:shape><defs></defs><g class="fills" id="fills-f748a6c0-1719-80f2-8003-2043cef67f60"><path rx="0" ry="0" style="fill:#4c3b9d;fill-opacity:1" d="M439.766,376.808C411.448,376.808,388.409,354.083,388.409,326.155C388.409,293.534,434.061,231.697,436.002,229.077C436.883,227.895,438.261,227.192,439.733,227.183C441.369,227.169,442.597,227.858,443.492,229.025C445.456,231.594,491.591,292.339,491.591,326.155C491.591,354.088,468.341,376.808,439.766,376.808ZZM439.817,239.844C428.919,255.322,397.784,301.667,397.784,326.155C397.784,348.912,416.619,367.433,439.766,367.433C463.170,367.433,482.216,348.917,482.216,326.155C482.216,300.758,450.847,255.106,439.817,239.844ZZ"></path></g></g></g><g id="shape-f748a6c0-1719-80f2-8003-204b16d63fe5"><penpot:shape penpot:name="Ellipse" penpot:hidden="false" penpot:type="circle" penpot:transform="matrix(1.000000, 0.000000, 0.000000, 1.000000, 0.000000, 0.000000)" penpot:transform-inverse="matrix(1.000000, 0.000000, 0.000000, 1.000000, 0.000000, 0.000000)" penpot:proportion="1" penpot:proportion-lock="false" penpot:rotation="0" penpot:center-x="517" penpot:center-y="177"><penpot:fills><penpot:fill penpot:fill-color="#ccc5fe" penpot:fill-opacity="1"></penpot:fill></penpot:fills></penpot:shape><defs></defs><g class="fills" id="fills-f748a6c0-1719-80f2-8003-204b16d63fe5"><ellipse rx="25" ry="25" style="fill:#ccc5fe;fill-opacity:1" cx="517" cy="177" transform="matrix(1.000000, 0.000000, 0.000000, 1.000000, 0.000000, 0.000000)"></ellipse></g></g><g id="shape-f748a6c0-1719-80f2-8003-20440f784654"><penpot:shape penpot:name="Ellipse" penpot:hidden="false" penpot:type="circle" penpot:transform="matrix(1.000000, 0.000000, 0.000000, 1.000000, 0.000000, 0.000000)" penpot:transform-inverse="matrix(1.000000, 0.000000, 0.000000, 1.000000, 0.000000, 0.000000)" penpot:proportion="1" penpot:proportion-lock="false" penpot:rotation="0" penpot:center-x="517" penpot:center-y="177"><penpot:shadow penpot:shadow-type="drop-shadow" penpot:hidden="false" penpot:color="#000000" penpot:opacity="0.2" penpot:offset-x="10" penpot:offset-y="0" penpot:blur="4" penpot:spread="0"></penpot:shadow><penpot:fills><penpot:fill penpot:fill-color="#ffffff" penpot:fill-opacity="0"></penpot:fill></penpot:fills><penpot:strokes><penpot:stroke penpot:stroke-alignment="center" penpot:stroke-color="#4c3b9d" penpot:stroke-opacity="1" penpot:stroke-width="8" penpot:stroke-style="solid"></penpot:stroke></penpot:strokes></penpot:shape><defs><filter id="filter_rumext-id-20" x="-0.6731370849898477" y="-0.6531370849898477" width="2.9062741699796955" height="2.3062741699796954" filterUnits="objectBoundingBox" color-interpolation-filters="sRGB"><feFlood flood-opacity="0" result="BackgroundImageFix"></feFlood><feColorMatrix in="SourceAlpha" type="matrix" values="0 0 0 0 0 0 0 0 0 0 0 0 0 0 0 0 0 0 127 0"></feColorMatrix><feOffset dx="10" dy="0"></feOffset><feGaussianBlur stdDeviation="2"></feGaussianBlur><feColorMatrix type="matrix" values="0 0 0 0 0 0 0 0 0 0 0 0 0 0 0 0 0 0 0.2 0"></feColorMatrix><feBlend mode="normal" in2="BackgroundImageFix" result="filter_f748a6c0-1719-80f2-8003-20524e7e7a6d"></feBlend><feBlend mode="normal" in="SourceGraphic" in2="filter_f748a6c0-1719-80f2-8003-20524e7e7a6d" result="shape"></feBlend></filter><filter id="filter_shadow_rumext-id-20" x="-0.6731370849898477" y="-0.6531370849898477" width="2.9062741699796955" height="2.3062741699796954" filterUnits="objectBoundingBox" color-interpolation-filters="sRGB"><feFlood flood-opacity="0" result="BackgroundImageFix"></feFlood><feColorMatrix in="SourceAlpha" type="matrix" values="0 0 0 0 0 0 0 0 0 0 0 0 0 0 0 0 0 0 127 0"></feColorMatrix><feOffset dx="10" dy="0"></feOffset><feGaussianBlur stdDeviation="2"></feGaussianBlur><feColorMatrix type="matrix" values="0 0 0 0 0 0 0 0 0 0 0 0 0 0 0 0 0 0 0.2 0"></feColorMatrix><feBlend mode="normal" in2="BackgroundImageFix" result="filter_f748a6c0-1719-80f2-8003-20524e7e7a6d"></feBlend><feBlend mode="normal" in="SourceGraphic" in2="filter_f748a6c0-1719-80f2-8003-20524e7e7a6d" result="shape"></feBlend></filter></defs><g class="fills" id="fills-f748a6c0-1719-80f2-8003-20440f784654"><ellipse rx="25" ry="25" style="fill:#ffffff;fill-opacity:0" cx="517" cy="177" transform="matrix(1.000000, 0.000000, 0.000000, 1.000000, 0.000000, 0.000000)" filter="url(#filter_rumext-id-20)"></ellipse></g><g id="strokes-f748a6c0-1719-80f2-8003-20440f784654" class="strokes"><g class="stroke-shape"><defs></defs><ellipse rx="25" ry="25" style="fill:none;fill-opacity:none;stroke-width:8;stroke:#4c3b9d;stroke-opacity:1;stroke-dasharray:" cx="517" cy="177" transform="matrix(1.000000, 0.000000, 0.000000, 1.000000, 0.000000, 0.000000)"></ellipse></g></g></g></svg>