<svg version="1.1" xmlns="http://www.w3.org/2000/svg" xmlns:xlink="http://www.w3.org/1999/xlink" width="118.92px" height="118.92px" viewBox="0,0,256,256"><g fill="#ffffff" fill-rule="nonzero" stroke="none" stroke-width="1" stroke-linecap="butt" stroke-linejoin="miter" stroke-miterlimit="10" stroke-dasharray="" stroke-dashoffset="0" font-family="none" font-weight="none" font-size="none" text-anchor="none" style="mix-blend-mode: normal"><g transform="translate(-0.00013,-0.00014)"><g><g transform="translate(-0.00011,-0.00051) scale(2.15271,2.15271)"><g><path d="M87.793,52.728c-7.308,0 -13.555,4.187 -16.137,10.087c-3.16,-2.388 -7.239,-3.727 -12.19,-3.727c-4.956,0 -9.042,1.339 -12.202,3.738c-2.576,-5.912 -8.823,-10.099 -16.137,-10.099c-9.603,0 -17.415,7.207 -17.415,16.066c0,8.865 7.812,16.062 17.415,16.062c1.72,0 3.118,-1.388 3.118,-3.117c0,-0.195 -0.082,-0.365 -0.119,-0.561c0.375,-0.608 0.643,-1.266 0.643,-2.033c0,-2.211 -1.791,-3.994 -3.998,-3.994c-1.778,0 -3.243,1.168 -3.766,2.752c-4.135,-1.438 -7.07,-4.981 -7.07,-9.122c0,-5.419 5.018,-9.834 11.18,-9.834c6.159,0 11.18,4.415 11.18,9.834c0,0.062 0.031,0.134 0.037,0.177c-1.422,2.984 -2.238,6.504 -2.238,10.645c0,11.879 12.328,23.395 16.243,26.768v9.432c0,1.724 1.397,3.118 3.118,3.118c1.72,0 3.117,-1.395 3.117,-3.118v-9.42c3.922,-3.373 16.24,-14.9 16.24,-26.779c0,-4.141 -0.822,-7.667 -2.235,-10.645c0.007,-0.061 0.037,-0.128 0.037,-0.177c0,-5.419 5.023,-9.834 11.18,-9.834c6.162,0 11.18,4.415 11.18,9.834c0,4.141 -2.936,7.667 -7.069,9.122c-0.524,-1.596 -1.974,-2.752 -3.751,-2.752c-2.211,0 -4.013,1.777 -4.013,3.994c0,0.768 0.268,1.425 0.639,2.033c-0.03,0.195 -0.115,0.365 -0.115,0.561c0,1.729 1.4,3.117 3.117,3.117c9.603,0 17.415,-7.197 17.415,-16.062c0.011,-8.853 -7.801,-16.066 -17.404,-16.066zM59.46,100.853c-4.896,-4.384 -13.119,-13.39 -13.119,-21.227c0,-11.824 7.14,-14.297 13.119,-14.297c5.979,0 13.122,2.466 13.122,14.297c0.001,7.801 -8.226,16.832 -13.122,21.227zM12.921,99.204c0.591,1.62 -0.244,3.409 -1.86,4.013c-0.359,0.128 -0.716,0.177 -1.072,0.177c-1.273,0 -2.469,-0.78 -2.935,-2.046c-5.733,-15.698 -8.762,-28.809 4.463,-54.666c14.964,-29.24 3.105,-40.785 2.594,-41.26c-1.248,-1.16 -1.346,-3.13 -0.188,-4.384c1.142,-1.279 3.081,-1.388 4.354,-0.255c0.661,0.6 16.13,14.896 -1.196,48.737c-12.119,23.658 -9.519,35.033 -4.16,49.684zM111.864,101.347c-0.463,1.266 -1.662,2.046 -2.935,2.046c-0.359,0 -0.713,-0.062 -1.072,-0.177c-1.619,-0.604 -2.454,-2.393 -1.863,-4.013c5.353,-14.65 7.952,-26.025 -4.159,-49.685c-17.323,-33.847 -1.869,-48.144 -1.199,-48.737c1.278,-1.133 3.252,-1.023 4.402,0.268c1.139,1.279 1.029,3.23 -0.231,4.384c-0.578,0.524 -12.343,12.09 2.588,41.248c13.243,25.858 10.198,38.968 4.469,54.666z"></path></g><g font-family="Inter, apple-system, BlinkMacSystemFont, &quot;Helvetica Neue&quot;, &quot;Segoe UI&quot;, &quot;Fira Sans&quot;, Roboto, Oxygen, Ubuntu, &quot;Droid Sans&quot;, Arial, sans-serif" font-weight="400" font-size="16" text-anchor="start"></g><g font-family="Inter, apple-system, BlinkMacSystemFont, &quot;Helvetica Neue&quot;, &quot;Segoe UI&quot;, &quot;Fira Sans&quot;, Roboto, Oxygen, Ubuntu, &quot;Droid Sans&quot;, Arial, sans-serif" font-weight="400" font-size="16" text-anchor="start"></g><g font-family="Inter, apple-system, BlinkMacSystemFont, &quot;Helvetica Neue&quot;, &quot;Segoe UI&quot;, &quot;Fira Sans&quot;, Roboto, Oxygen, Ubuntu, &quot;Droid Sans&quot;, Arial, sans-serif" font-weight="400" font-size="16" text-anchor="start"></g><g font-family="Inter, apple-system, BlinkMacSystemFont, &quot;Helvetica Neue&quot;, &quot;Segoe UI&quot;, &quot;Fira Sans&quot;, Roboto, Oxygen, Ubuntu, &quot;Droid Sans&quot;, Arial, sans-serif" font-weight="400" font-size="16" text-anchor="start"></g><g font-family="Inter, apple-system, BlinkMacSystemFont, &quot;Helvetica Neue&quot;, &quot;Segoe UI&quot;, &quot;Fira Sans&quot;, Roboto, Oxygen, Ubuntu, &quot;Droid Sans&quot;, Arial, sans-serif" font-weight="400" font-size="16" text-anchor="start"></g><g font-family="Inter, apple-system, BlinkMacSystemFont, &quot;Helvetica Neue&quot;, &quot;Segoe UI&quot;, &quot;Fira Sans&quot;, Roboto, Oxygen, Ubuntu, &quot;Droid Sans&quot;, Arial, sans-serif" font-weight="400" font-size="16" text-anchor="start"></g><g font-family="Inter, apple-system, BlinkMacSystemFont, &quot;Helvetica Neue&quot;, &quot;Segoe UI&quot;, &quot;Fira Sans&quot;, Roboto, Oxygen, Ubuntu, &quot;Droid Sans&quot;, Arial, sans-serif" font-weight="400" font-size="16" text-anchor="start"></g><g font-family="Inter, apple-system, BlinkMacSystemFont, &quot;Helvetica Neue&quot;, &quot;Segoe UI&quot;, &quot;Fira Sans&quot;, Roboto, Oxygen, Ubuntu, &quot;Droid Sans&quot;, Arial, sans-serif" font-weight="400" font-size="16" text-anchor="start"></g><g font-family="Inter, apple-system, BlinkMacSystemFont, &quot;Helvetica Neue&quot;, &quot;Segoe UI&quot;, &quot;Fira Sans&quot;, Roboto, Oxygen, Ubuntu, &quot;Droid Sans&quot;, Arial, sans-serif" font-weight="400" font-size="16" text-anchor="start"></g><g font-family="Inter, apple-system, BlinkMacSystemFont, &quot;Helvetica Neue&quot;, &quot;Segoe UI&quot;, &quot;Fira Sans&quot;, Roboto, Oxygen, Ubuntu, &quot;Droid Sans&quot;, Arial, sans-serif" font-weight="400" font-size="16" text-anchor="start"></g><g font-family="Inter, apple-system, BlinkMacSystemFont, &quot;Helvetica Neue&quot;, &quot;Segoe UI&quot;, &quot;Fira Sans&quot;, Roboto, Oxygen, Ubuntu, &quot;Droid Sans&quot;, Arial, sans-serif" font-weight="400" font-size="16" text-anchor="start"></g><g font-family="Inter, apple-system, BlinkMacSystemFont, &quot;Helvetica Neue&quot;, &quot;Segoe UI&quot;, &quot;Fira Sans&quot;, Roboto, Oxygen, Ubuntu, &quot;Droid Sans&quot;, Arial, sans-serif" font-weight="400" font-size="16" text-anchor="start"></g><g font-family="Inter, apple-system, BlinkMacSystemFont, &quot;Helvetica Neue&quot;, &quot;Segoe UI&quot;, &quot;Fira Sans&quot;, Roboto, Oxygen, Ubuntu, &quot;Droid Sans&quot;, Arial, sans-serif" font-weight="400" font-size="16" text-anchor="start"></g><g font-family="Inter, apple-system, BlinkMacSystemFont, &quot;Helvetica Neue&quot;, &quot;Segoe UI&quot;, &quot;Fira Sans&quot;, Roboto, Oxygen, Ubuntu, &quot;Droid Sans&quot;, Arial, sans-serif" font-weight="400" font-size="16" text-anchor="start"></g><g font-family="Inter, apple-system, BlinkMacSystemFont, &quot;Helvetica Neue&quot;, &quot;Segoe UI&quot;, &quot;Fira Sans&quot;, Roboto, Oxygen, Ubuntu, &quot;Droid Sans&quot;, Arial, sans-serif" font-weight="400" font-size="16" text-anchor="start"></g></g></g></g></g></svg>